<?xml version="1.0" encoding="UTF-8"?>
<!--Generator: Apple Native CoreSVG 123-->
<!DOCTYPE svg
PUBLIC "-//W3C//DTD SVG 1.1//EN"
       "http://www.w3.org/Graphics/SVG/1.1/DTD/svg11.dtd">
<svg version="1.1" xmlns="http://www.w3.org/2000/svg" xmlns:xlink="http://www.w3.org/1999/xlink" width="3300" height="2200">
 <!--glyph: "uni100303.medium", point size: 100.000000, font version: "Version 15.0d7e11", template writer version: "5"-->
 <g id="Notes">
  <rect height="2200" id="artboard" style="fill:white;opacity:1" width="3300" x="0" y="0"/>
  <line id="" style="fill:none;stroke:black;opacity:1;stroke-width:0.5;" x1="263" x2="3036" y1="292" y2="292"/>
  <text style="stroke:none;fill:black;font-family:-apple-system,&quot;SF Pro Display&quot;,&quot;SF Pro Text&quot;,Helvetica,sans-serif;font-weight:bold;" transform="matrix(1 0 0 1 263 322)">Weight/Scale Variations</text>
  <text style="stroke:none;fill:black;font-family:-apple-system,&quot;SF Pro Display&quot;,&quot;SF Pro Text&quot;,Helvetica,sans-serif;text-anchor:middle;" transform="matrix(1 0 0 1 559.711 322)">Ultralight</text>
  <text style="stroke:none;fill:black;font-family:-apple-system,&quot;SF Pro Display&quot;,&quot;SF Pro Text&quot;,Helvetica,sans-serif;text-anchor:middle;" transform="matrix(1 0 0 1 856.422 322)">Thin</text>
  <text style="stroke:none;fill:black;font-family:-apple-system,&quot;SF Pro Display&quot;,&quot;SF Pro Text&quot;,Helvetica,sans-serif;text-anchor:middle;" transform="matrix(1 0 0 1 1153.13 322)">Light</text>
  <text style="stroke:none;fill:black;font-family:-apple-system,&quot;SF Pro Display&quot;,&quot;SF Pro Text&quot;,Helvetica,sans-serif;text-anchor:middle;" transform="matrix(1 0 0 1 1449.84 322)">Regular</text>
  <text style="stroke:none;fill:black;font-family:-apple-system,&quot;SF Pro Display&quot;,&quot;SF Pro Text&quot;,Helvetica,sans-serif;text-anchor:middle;" transform="matrix(1 0 0 1 1746.56 322)">Medium</text>
  <text style="stroke:none;fill:black;font-family:-apple-system,&quot;SF Pro Display&quot;,&quot;SF Pro Text&quot;,Helvetica,sans-serif;text-anchor:middle;" transform="matrix(1 0 0 1 2043.27 322)">Semibold</text>
  <text style="stroke:none;fill:black;font-family:-apple-system,&quot;SF Pro Display&quot;,&quot;SF Pro Text&quot;,Helvetica,sans-serif;text-anchor:middle;" transform="matrix(1 0 0 1 2339.98 322)">Bold</text>
  <text style="stroke:none;fill:black;font-family:-apple-system,&quot;SF Pro Display&quot;,&quot;SF Pro Text&quot;,Helvetica,sans-serif;text-anchor:middle;" transform="matrix(1 0 0 1 2636.69 322)">Heavy</text>
  <text style="stroke:none;fill:black;font-family:-apple-system,&quot;SF Pro Display&quot;,&quot;SF Pro Text&quot;,Helvetica,sans-serif;text-anchor:middle;" transform="matrix(1 0 0 1 2933.4 322)">Black</text>
  <line id="" style="fill:none;stroke:black;opacity:1;stroke-width:0.5;" x1="263" x2="3036" y1="1903" y2="1903"/>
  <g id="" transform="matrix(1 0 0 1 263 1933)">
   <path d="M 9.24805 0.830078 C 13.5547 0.830078 17.1387 -2.74414 17.1387 -7.05078 C 17.1387 -11.3574 13.5449 -14.9316 9.23828 -14.9316 C 4.94141 -14.9316 1.36719 -11.3574 1.36719 -7.05078 C 1.36719 -2.74414 4.95117 0.830078 9.24805 0.830078 Z M 9.24805 -0.654297 C 5.70312 -0.654297 2.87109 -3.49609 2.87109 -7.05078 C 2.87109 -10.6055 5.69336 -13.4473 9.23828 -13.4473 C 12.793 -13.4473 15.6348 -10.6055 15.6445 -7.05078 C 15.6543 -3.49609 12.8027 -0.654297 9.24805 -0.654297 Z M 9.22852 -3.42773 C 9.69727 -3.42773 9.9707 -3.74023 9.9707 -4.25781 L 9.9707 -6.31836 L 12.1973 -6.31836 C 12.6953 -6.31836 13.0371 -6.57227 13.0371 -7.04102 C 13.0371 -7.51953 12.7148 -7.7832 12.1973 -7.7832 L 9.9707 -7.7832 L 9.9707 -10.0098 C 9.9707 -10.5273 9.69727 -10.8496 9.22852 -10.8496 C 8.75977 -10.8496 8.50586 -10.5078 8.50586 -10.0098 L 8.50586 -7.7832 L 6.29883 -7.7832 C 5.78125 -7.7832 5.44922 -7.51953 5.44922 -7.04102 C 5.44922 -6.57227 5.80078 -6.31836 6.29883 -6.31836 L 8.50586 -6.31836 L 8.50586 -4.25781 C 8.50586 -3.75977 8.75977 -3.42773 9.22852 -3.42773 Z"/>
  </g>
  <g id="" transform="matrix(1 0 0 1 281.506 1933)">
   <path d="M 11.709 2.91016 C 17.1582 2.91016 21.6699 -1.60156 21.6699 -7.05078 C 21.6699 -12.4902 17.1484 -17.0117 11.6992 -17.0117 C 6.25977 -17.0117 1.74805 -12.4902 1.74805 -7.05078 C 1.74805 -1.60156 6.26953 2.91016 11.709 2.91016 Z M 11.709 1.25 C 7.09961 1.25 3.41797 -2.44141 3.41797 -7.05078 C 3.41797 -11.6504 7.08984 -15.3516 11.6992 -15.3516 C 16.3086 -15.3516 20 -11.6504 20.0098 -7.05078 C 20.0195 -2.44141 16.3184 1.25 11.709 1.25 Z M 11.6895 -2.41211 C 12.207 -2.41211 12.5195 -2.77344 12.5195 -3.33984 L 12.5195 -6.23047 L 15.5762 -6.23047 C 16.123 -6.23047 16.5039 -6.51367 16.5039 -7.03125 C 16.5039 -7.55859 16.1426 -7.86133 15.5762 -7.86133 L 12.5195 -7.86133 L 12.5195 -10.9277 C 12.5195 -11.5039 12.207 -11.8555 11.6895 -11.8555 C 11.1719 -11.8555 10.8789 -11.4844 10.8789 -10.9277 L 10.8789 -7.86133 L 7.83203 -7.86133 C 7.26562 -7.86133 6.89453 -7.55859 6.89453 -7.03125 C 6.89453 -6.51367 7.28516 -6.23047 7.83203 -6.23047 L 10.8789 -6.23047 L 10.8789 -3.33984 C 10.8789 -2.79297 11.1719 -2.41211 11.6895 -2.41211 Z"/>
  </g>
  <g id="" transform="matrix(1 0 0 1 304.924 1933)">
   <path d="M 14.9707 5.67383 C 21.9336 5.67383 27.6953 -0.078125 27.6953 -7.04102 C 27.6953 -14.0039 21.9238 -19.7559 14.9609 -19.7559 C 8.00781 -19.7559 2.25586 -14.0039 2.25586 -7.04102 C 2.25586 -0.078125 8.01758 5.67383 14.9707 5.67383 Z M 14.9707 3.85742 C 8.93555 3.85742 4.08203 -1.00586 4.08203 -7.04102 C 4.08203 -13.0762 8.92578 -17.9395 14.9609 -17.9395 C 21.0059 -17.9395 25.8594 -13.0762 25.8691 -7.04102 C 25.8789 -1.00586 21.0156 3.85742 14.9707 3.85742 Z M 14.9512 -1.06445 C 15.5176 -1.06445 15.8691 -1.45508 15.8691 -2.06055 L 15.8691 -6.13281 L 20.1074 -6.13281 C 20.6934 -6.13281 21.1133 -6.46484 21.1133 -7.02148 C 21.1133 -7.59766 20.7227 -7.93945 20.1074 -7.93945 L 15.8691 -7.93945 L 15.8691 -12.1875 C 15.8691 -12.8027 15.5176 -13.1934 14.9512 -13.1934 C 14.3848 -13.1934 14.0625 -12.7832 14.0625 -12.1875 L 14.0625 -7.93945 L 9.83398 -7.93945 C 9.21875 -7.93945 8.80859 -7.59766 8.80859 -7.02148 C 8.80859 -6.46484 9.23828 -6.13281 9.83398 -6.13281 L 14.0625 -6.13281 L 14.0625 -2.06055 C 14.0625 -1.47461 14.3848 -1.06445 14.9512 -1.06445 Z"/>
  </g>
  <text style="stroke:none;fill:black;font-family:-apple-system,&quot;SF Pro Display&quot;,&quot;SF Pro Text&quot;,Helvetica,sans-serif;font-weight:bold;" transform="matrix(1 0 0 1 263 1953)">Design Variations</text>
  <text style="stroke:none;fill:black;font-family:-apple-system,&quot;SF Pro Display&quot;,&quot;SF Pro Text&quot;,Helvetica,sans-serif;" transform="matrix(1 0 0 1 263 1971)">Symbols are supported in up to nine weights and three scales.</text>
  <text style="stroke:none;fill:black;font-family:-apple-system,&quot;SF Pro Display&quot;,&quot;SF Pro Text&quot;,Helvetica,sans-serif;" transform="matrix(1 0 0 1 263 1989)">For optimal layout with text and other symbols, vertically align</text>
  <text style="stroke:none;fill:black;font-family:-apple-system,&quot;SF Pro Display&quot;,&quot;SF Pro Text&quot;,Helvetica,sans-serif;" transform="matrix(1 0 0 1 263 2007)">symbols with the adjacent text.</text>
  <rect height="14" id="" style="fill:#00AEEF;stroke:none;opacity:0.4;" width="3" x="776" y="1919"/>
  <g id="" transform="matrix(1 0 0 1 779 1933)">
   <path d="M 10.5273 0 L 12.373 0 L 7.17773 -14.0918 L 5.43945 -14.0918 L 0.244141 0 L 2.08984 0 L 3.50586 -4.0332 L 9.11133 -4.0332 Z M 6.2793 -11.9531 L 6.33789 -11.9531 L 8.59375 -5.52734 L 4.02344 -5.52734 Z"/>
  </g>
  <rect height="14" id="" style="fill:#00AEEF;stroke:none;opacity:0.4;" width="3" x="791.617" y="1919"/>
  <text style="stroke:none;fill:black;font-family:-apple-system,&quot;SF Pro Display&quot;,&quot;SF Pro Text&quot;,Helvetica,sans-serif;font-weight:bold;" transform="matrix(1 0 0 1 776 1953)">Margins</text>
  <text style="stroke:none;fill:black;font-family:-apple-system,&quot;SF Pro Display&quot;,&quot;SF Pro Text&quot;,Helvetica,sans-serif;" transform="matrix(1 0 0 1 776 1971)">Leading and trailing margins on the left and right side of each symbol</text>
  <text style="stroke:none;fill:black;font-family:-apple-system,&quot;SF Pro Display&quot;,&quot;SF Pro Text&quot;,Helvetica,sans-serif;" transform="matrix(1 0 0 1 776 1989)">can be adjusted by modifying the width of the blue rectangles.</text>
  <text style="stroke:none;fill:black;font-family:-apple-system,&quot;SF Pro Display&quot;,&quot;SF Pro Text&quot;,Helvetica,sans-serif;" transform="matrix(1 0 0 1 776 2007)">Modifications are automatically applied proportionally to all</text>
  <text style="stroke:none;fill:black;font-family:-apple-system,&quot;SF Pro Display&quot;,&quot;SF Pro Text&quot;,Helvetica,sans-serif;" transform="matrix(1 0 0 1 776 2025)">scales and weights.</text>
  <g id="" transform="matrix(1 0 0 1 1289 1933)">
   <path d="M 2.83203 3.11523 L 4.375 4.6582 C 5.22461 5.48828 6.19141 5.41992 7.06055 4.46289 L 17.2754 -6.66016 C 17.7051 -6.36719 18.0957 -6.37695 18.5645 -6.47461 L 19.6094 -6.68945 L 20.3027 -5.99609 L 20.2539 -5.47852 C 20.1855 -4.95117 20.3516 -4.53125 20.8496 -4.0332 L 21.6602 -3.22266 C 22.168 -2.71484 22.8223 -2.68555 23.3008 -3.16406 L 26.5527 -6.41602 C 27.0312 -6.89453 27.0117 -7.54883 26.5039 -8.05664 L 25.6836 -8.87695 C 25.1855 -9.375 24.7754 -9.55078 24.2383 -9.47266 L 23.7109 -9.41406 L 23.0566 -10.0781 L 23.3398 -11.2207 C 23.4863 -11.7871 23.3398 -12.2559 22.7148 -12.8613 L 20.3027 -15.2539 C 16.7578 -18.7793 12.2266 -18.6719 9.11133 -15.5371 C 8.69141 -15.1074 8.64258 -14.5215 8.91602 -14.0918 C 9.15039 -13.7207 9.62891 -13.4961 10.2734 -13.6621 C 11.7871 -14.043 13.3008 -13.9258 14.7852 -12.9199 L 14.1602 -11.3379 C 13.9258 -10.752 13.9453 -10.2734 14.1797 -9.83398 L 3.01758 0.439453 C 2.08008 1.30859 1.97266 2.25586 2.83203 3.11523 Z M 10.6738 -15.1465 C 13.3398 -17.1387 16.6504 -16.8262 19.0527 -14.4141 L 21.6797 -11.8066 C 21.9141 -11.5723 21.9434 -11.3867 21.8848 -11.0938 L 21.5039 -9.53125 L 23.0762 -7.95898 L 24.043 -8.04688 C 24.3262 -8.07617 24.4141 -8.05664 24.6387 -7.83203 L 25.2637 -7.20703 L 22.5098 -4.46289 L 21.8848 -5.07812 C 21.6602 -5.30273 21.6406 -5.40039 21.6699 -5.68359 L 21.7578 -6.64062 L 20.1953 -8.20312 L 18.5742 -7.89062 C 18.291 -7.83203 18.1445 -7.83203 17.9102 -8.07617 L 15.7324 -10.2539 C 15.5078 -10.4883 15.4785 -10.625 15.6055 -10.9473 L 16.5527 -13.2227 C 14.9512 -14.7559 12.8418 -15.6055 10.8008 -14.9512 C 10.7129 -14.9219 10.6445 -14.9414 10.6152 -14.9805 C 10.5859 -15.0293 10.5859 -15.0781 10.6738 -15.1465 Z M 4.10156 2.41211 C 3.61328 1.91406 3.78906 1.61133 4.12109 1.30859 L 15.0781 -8.80859 L 16.3086 -7.57812 L 6.15234 3.34961 C 5.84961 3.68164 5.46875 3.7793 5.06836 3.37891 Z"/>
  </g>
  <text style="stroke:none;fill:black;font-family:-apple-system,&quot;SF Pro Display&quot;,&quot;SF Pro Text&quot;,Helvetica,sans-serif;font-weight:bold;" transform="matrix(1 0 0 1 1289 1953)">Exporting</text>
  <text style="stroke:none;fill:black;font-family:-apple-system,&quot;SF Pro Display&quot;,&quot;SF Pro Text&quot;,Helvetica,sans-serif;" transform="matrix(1 0 0 1 1289 1971)">Symbols should be outlined when exporting to ensure the</text>
  <text style="stroke:none;fill:black;font-family:-apple-system,&quot;SF Pro Display&quot;,&quot;SF Pro Text&quot;,Helvetica,sans-serif;" transform="matrix(1 0 0 1 1289 1989)">design is preserved when submitting to Xcode.</text>
  <text id="template-version" style="stroke:none;fill:black;font-family:-apple-system,&quot;SF Pro Display&quot;,&quot;SF Pro Text&quot;,Helvetica,sans-serif;text-anchor:end;" transform="matrix(1 0 0 1 3036 1933)">Template v.1.0</text>
  <text style="stroke:none;fill:black;font-family:-apple-system,&quot;SF Pro Display&quot;,&quot;SF Pro Text&quot;,Helvetica,sans-serif;text-anchor:end;" transform="matrix(1 0 0 1 3036 1951)">Generated from text.justify</text>
  <text style="stroke:none;fill:black;font-family:-apple-system,&quot;SF Pro Display&quot;,&quot;SF Pro Text&quot;,Helvetica,sans-serif;text-anchor:end;" transform="matrix(1 0 0 1 3036 1969)">Typeset at 100 points</text>
  <text style="stroke:none;fill:black;font-family:-apple-system,&quot;SF Pro Display&quot;,&quot;SF Pro Text&quot;,Helvetica,sans-serif;" transform="matrix(1 0 0 1 263 726)">Small</text>
  <text style="stroke:none;fill:black;font-family:-apple-system,&quot;SF Pro Display&quot;,&quot;SF Pro Text&quot;,Helvetica,sans-serif;" transform="matrix(1 0 0 1 263 1156)">Medium</text>
  <text style="stroke:none;fill:black;font-family:-apple-system,&quot;SF Pro Display&quot;,&quot;SF Pro Text&quot;,Helvetica,sans-serif;" transform="matrix(1 0 0 1 263 1586)">Large</text>
 </g>
 <g id="Guides">
  <g id="H-reference" style="fill:#27AAE1;stroke:none;" transform="matrix(1 0 0 1 339 696)">
   <path d="M 54.9316 0 L 57.666 0 L 30.5664 -70.459 L 28.0762 -70.459 L 0.976562 0 L 3.66211 0 L 12.9395 -24.4629 L 45.7031 -24.4629 Z M 29.1992 -67.0898 L 29.4434 -67.0898 L 44.8242 -26.709 L 13.8184 -26.709 Z"/>
  </g>
  <line id="Baseline-S" style="fill:none;stroke:#27AAE1;opacity:1;stroke-width:0.577;" x1="263" x2="3036" y1="696" y2="696"/>
  <line id="Capline-S" style="fill:none;stroke:#27AAE1;opacity:1;stroke-width:0.577;" x1="263" x2="3036" y1="625.541" y2="625.541"/>
  <g id="H-reference" style="fill:#27AAE1;stroke:none;" transform="matrix(1 0 0 1 339 1126)">
   <path d="M 54.9316 0 L 57.666 0 L 30.5664 -70.459 L 28.0762 -70.459 L 0.976562 0 L 3.66211 0 L 12.9395 -24.4629 L 45.7031 -24.4629 Z M 29.1992 -67.0898 L 29.4434 -67.0898 L 44.8242 -26.709 L 13.8184 -26.709 Z"/>
  </g>
  <line id="Baseline-M" style="fill:none;stroke:#27AAE1;opacity:1;stroke-width:0.577;" x1="263" x2="3036" y1="1126" y2="1126"/>
  <line id="Capline-M" style="fill:none;stroke:#27AAE1;opacity:1;stroke-width:0.577;" x1="263" x2="3036" y1="1055.54" y2="1055.54"/>
  <g id="H-reference" style="fill:#27AAE1;stroke:none;" transform="matrix(1 0 0 1 339 1556)">
   <path d="M 54.9316 0 L 57.666 0 L 30.5664 -70.459 L 28.0762 -70.459 L 0.976562 0 L 3.66211 0 L 12.9395 -24.4629 L 45.7031 -24.4629 Z M 29.1992 -67.0898 L 29.4434 -67.0898 L 44.8242 -26.709 L 13.8184 -26.709 Z"/>
  </g>
  <line id="Baseline-L" style="fill:none;stroke:#27AAE1;opacity:1;stroke-width:0.577;" x1="263" x2="3036" y1="1556" y2="1556"/>
  <line id="Capline-L" style="fill:none;stroke:#27AAE1;opacity:1;stroke-width:0.577;" x1="263" x2="3036" y1="1485.54" y2="1485.54"/>
  <rect height="119.336" id="left-margin" style="fill:#00AEEF;stroke:none;opacity:0.4;" width="12.4512" x="1388.2" y="1030.79"/>
  <rect height="119.336" id="right-margin" style="fill:#00AEEF;stroke:none;opacity:0.4;" width="12.4512" x="1499.04" y="1030.79"/>
 </g>
 <g id="Symbols">
  <g id="Black-L" transform="matrix(1 0 0 1 2847.17 1556)">
   <path d="M 24.9023 -77.2461 L 147.559 -77.2461 C 152.49 -77.2461 156.396 -81.543 156.396 -86.377 C 156.396 -91.3574 152.539 -95.5078 147.559 -95.5078 L 24.9023 -95.5078 C 19.9707 -95.5078 16.0645 -91.2598 16.0645 -86.377 C 16.0645 -81.6406 20.0195 -77.2461 24.9023 -77.2461 Z M 24.9023 -44.1895 L 147.559 -44.1895 C 152.49 -44.1895 156.396 -48.4863 156.396 -53.3203 C 156.396 -58.3496 152.539 -62.4512 147.559 -62.4512 L 24.9023 -62.4512 C 19.9707 -62.4512 16.0645 -58.252 16.0645 -53.3203 C 16.0645 -48.6328 20.0195 -44.1895 24.9023 -44.1895 Z M 24.9023 -11.1328 L 147.559 -11.1328 C 152.49 -11.1328 156.396 -15.4297 156.396 -20.2637 C 156.396 -25.2441 152.539 -29.3945 147.559 -29.3945 L 24.9023 -29.3945 C 19.9707 -29.3945 16.0645 -25.1465 16.0645 -20.2637 C 16.0645 -15.5273 20.0195 -11.1328 24.9023 -11.1328 Z M 24.9023 21.9238 L 147.559 21.9238 C 152.49 21.9238 156.396 17.627 156.396 12.793 C 156.396 7.76367 152.539 3.66211 147.559 3.66211 L 24.9023 3.66211 C 19.9707 3.66211 16.0645 7.91016 16.0645 12.793 C 16.0645 17.4805 20.0195 21.9238 24.9023 21.9238 Z"/>
  </g>
  <g id="Heavy-L" transform="matrix(1 0 0 1 2552.19 1556)">
   <path d="M 23.7793 -78.0762 L 145.166 -78.0762 C 149.512 -78.0762 152.93 -81.7871 152.93 -86.0352 C 152.93 -90.3809 149.561 -93.9941 145.166 -93.9941 L 23.7793 -93.9941 C 19.4824 -93.9941 16.0645 -90.332 16.0645 -86.0352 C 16.0645 -81.8848 19.4824 -78.0762 23.7793 -78.0762 Z M 23.7793 -45.0684 L 145.166 -45.0684 C 149.512 -45.0684 152.93 -48.7793 152.93 -52.9785 C 152.93 -57.373 149.561 -60.9375 145.166 -60.9375 L 23.7793 -60.9375 C 19.4824 -60.9375 16.0645 -57.2754 16.0645 -52.9785 C 16.0645 -48.877 19.4824 -45.0684 23.7793 -45.0684 Z M 23.7793 -11.9629 L 145.166 -11.9629 C 149.512 -11.9629 152.93 -15.6738 152.93 -19.9219 C 152.93 -24.3164 149.561 -27.8809 145.166 -27.8809 L 23.7793 -27.8809 C 19.4824 -27.8809 16.0645 -24.2188 16.0645 -19.9219 C 16.0645 -15.7715 19.4824 -11.9629 23.7793 -11.9629 Z M 23.7793 21.0449 L 145.166 21.0449 C 149.512 21.0449 152.93 17.334 152.93 13.0859 C 152.93 8.74023 149.561 5.17578 145.166 5.17578 L 23.7793 5.17578 C 19.4824 5.17578 16.0645 8.83789 16.0645 13.0859 C 16.0645 17.2363 19.4824 21.0449 23.7793 21.0449 Z"/>
  </g>
  <g id="Bold-L" transform="matrix(1 0 0 1 2257.43 1556)">
   <path d="M 22.5098 -79.0527 L 142.529 -79.0527 C 146.143 -79.0527 149.023 -82.0801 149.023 -85.6445 C 149.023 -89.3066 146.191 -92.2852 142.529 -92.2852 L 22.5098 -92.2852 C 18.8965 -92.2852 16.0645 -89.2578 16.0645 -85.6445 C 16.0645 -82.1289 18.9453 -79.0527 22.5098 -79.0527 Z M 22.5098 -45.9961 L 142.529 -45.9961 C 146.143 -45.9961 149.023 -49.0723 149.023 -52.6367 C 149.023 -56.25 146.191 -59.2285 142.529 -59.2285 L 22.5098 -59.2285 C 18.8965 -59.2285 16.0645 -56.2012 16.0645 -52.6367 C 16.0645 -49.1211 18.9453 -45.9961 22.5098 -45.9961 Z M 22.5098 -12.9395 L 142.529 -12.9395 C 146.143 -12.9395 149.023 -16.0156 149.023 -19.5801 C 149.023 -23.1934 146.191 -26.1719 142.529 -26.1719 L 22.5098 -26.1719 C 18.8965 -26.1719 16.0645 -23.1445 16.0645 -19.5801 C 16.0645 -16.0645 18.9453 -12.9395 22.5098 -12.9395 Z M 22.5098 20.0684 L 142.529 20.0684 C 146.143 20.0684 149.023 17.041 149.023 13.4766 C 149.023 9.81445 146.191 6.88477 142.529 6.88477 L 22.5098 6.88477 C 18.8965 6.88477 16.0645 9.86328 16.0645 13.4766 C 16.0645 16.9922 18.9453 20.0684 22.5098 20.0684 Z"/>
  </g>
  <g id="Semibold-L" transform="matrix(1 0 0 1 1962.07 1556)">
   <path d="M 21.6797 -79.6875 L 140.723 -79.6875 C 143.848 -79.6875 146.338 -82.2754 146.338 -85.4004 C 146.338 -88.5742 143.848 -91.0645 140.723 -91.0645 L 21.6797 -91.0645 C 18.5059 -91.0645 16.0645 -88.5254 16.0645 -85.4004 C 16.0645 -82.3242 18.5547 -79.6875 21.6797 -79.6875 Z M 21.6797 -46.6797 L 140.723 -46.6797 C 143.848 -46.6797 146.338 -49.2676 146.338 -52.3438 C 146.338 -55.5176 143.848 -58.0566 140.723 -58.0566 L 21.6797 -58.0566 C 18.5059 -58.0566 16.0645 -55.4688 16.0645 -52.3438 C 16.0645 -49.3164 18.5547 -46.6797 21.6797 -46.6797 Z M 21.6797 -13.623 L 140.723 -13.623 C 143.848 -13.623 146.338 -16.2109 146.338 -19.2871 C 146.338 -22.4609 143.848 -25 140.723 -25 L 21.6797 -25 C 18.5059 -25 16.0645 -22.4121 16.0645 -19.2871 C 16.0645 -16.2598 18.5547 -13.623 21.6797 -13.623 Z M 21.6797 19.4336 L 140.723 19.4336 C 143.848 19.4336 146.338 16.8457 146.338 13.7207 C 146.338 10.5469 143.848 8.05664 140.723 8.05664 L 21.6797 8.05664 C 18.5059 8.05664 16.0645 10.5957 16.0645 13.7207 C 16.0645 16.7969 18.5547 19.4336 21.6797 19.4336 Z"/>
  </g>
  <g id="Medium-L" transform="matrix(1 0 0 1 1666.38 1556)">
   <path d="M 20.9961 -80.2246 L 139.307 -80.2246 C 142.09 -80.2246 144.287 -82.4219 144.287 -85.2051 C 144.287 -87.9883 142.09 -90.1855 139.307 -90.1855 L 20.9961 -90.1855 C 18.2129 -90.1855 16.0645 -87.9395 16.0645 -85.2051 C 16.0645 -82.4707 18.2129 -80.2246 20.9961 -80.2246 Z M 20.9961 -47.168 L 139.307 -47.168 C 142.09 -47.168 144.287 -49.4141 144.287 -52.1484 C 144.287 -54.9316 142.09 -57.1289 139.307 -57.1289 L 20.9961 -57.1289 C 18.2129 -57.1289 16.0645 -54.9316 16.0645 -52.1484 C 16.0645 -49.4141 18.2129 -47.168 20.9961 -47.168 Z M 20.9961 -14.1113 L 139.307 -14.1113 C 142.09 -14.1113 144.287 -16.3574 144.287 -19.1406 C 144.287 -21.9238 142.09 -24.1211 139.307 -24.1211 L 20.9961 -24.1211 C 18.2129 -24.1211 16.0645 -21.875 16.0645 -19.1406 C 16.0645 -16.4062 18.2129 -14.1113 20.9961 -14.1113 Z M 20.9961 18.8965 L 139.307 18.8965 C 142.09 18.8965 144.287 16.6504 144.287 13.916 C 144.287 11.1328 142.09 8.93555 139.307 8.93555 L 20.9961 8.93555 C 18.2129 8.93555 16.0645 11.1328 16.0645 13.916 C 16.0645 16.6504 18.2129 18.8965 20.9961 18.8965 Z"/>
  </g>
  <g id="Regular-L" transform="matrix(1 0 0 1 1370.99 1556)">
   <path d="M 20.166 -80.8594 L 137.5 -80.8594 C 139.795 -80.8594 141.65 -82.6172 141.65 -84.9609 C 141.65 -87.2559 139.795 -89.0137 137.5 -89.0137 L 20.166 -89.0137 C 17.8223 -89.0137 16.0645 -87.2559 16.0645 -84.9609 C 16.0645 -82.6172 17.8223 -80.8594 20.166 -80.8594 Z M 20.166 -47.8027 L 137.5 -47.8027 C 139.795 -47.8027 141.65 -49.6094 141.65 -51.9043 C 141.65 -54.1992 139.795 -56.0059 137.5 -56.0059 L 20.166 -56.0059 C 17.8223 -56.0059 16.0645 -54.1992 16.0645 -51.9043 C 16.0645 -49.6094 17.8223 -47.8027 20.166 -47.8027 Z M 20.166 -14.7949 L 137.5 -14.7949 C 139.795 -14.7949 141.65 -16.5527 141.65 -18.8477 C 141.65 -21.1914 139.795 -22.9492 137.5 -22.9492 L 20.166 -22.9492 C 17.8223 -22.9492 16.0645 -21.1914 16.0645 -18.8477 C 16.0645 -16.5527 17.8223 -14.7949 20.166 -14.7949 Z M 20.166 18.2617 L 137.5 18.2617 C 139.795 18.2617 141.65 16.4551 141.65 14.1602 C 141.65 11.8652 139.795 10.1074 137.5 10.1074 L 20.166 10.1074 C 17.8223 10.1074 16.0645 11.8652 16.0645 14.1602 C 16.0645 16.4551 17.8223 18.2617 20.166 18.2617 Z"/>
  </g>
  <g id="Light-L" transform="matrix(1 0 0 1 1075.2 1556)">
   <path d="M 19.2383 -81.7871 L 136.621 -81.7871 C 138.379 -81.7871 139.795 -83.1055 139.795 -84.9121 C 139.795 -86.7188 138.379 -88.0859 136.621 -88.0859 L 19.2383 -88.0859 C 17.4316 -88.0859 16.0645 -86.7188 16.0645 -84.9121 C 16.0645 -83.1055 17.4316 -81.7871 19.2383 -81.7871 Z M 19.2383 -48.6816 L 136.621 -48.6816 C 138.379 -48.6816 139.795 -50.0488 139.795 -51.8555 C 139.795 -53.6621 138.379 -54.9805 136.621 -54.9805 L 19.2383 -54.9805 C 17.4316 -54.9805 16.0645 -53.6621 16.0645 -51.8555 C 16.0645 -50.0488 17.4316 -48.6816 19.2383 -48.6816 Z M 19.2383 -15.625 L 136.621 -15.625 C 138.379 -15.625 139.795 -16.9922 139.795 -18.7988 C 139.795 -20.5566 138.379 -21.9238 136.621 -21.9238 L 19.2383 -21.9238 C 17.4316 -21.9238 16.0645 -20.5566 16.0645 -18.7988 C 16.0645 -16.9922 17.4316 -15.625 19.2383 -15.625 Z M 19.2383 17.4316 L 136.621 17.4316 C 138.379 17.4316 139.795 16.1133 139.795 14.3066 C 139.795 12.5 138.379 11.1328 136.621 11.1328 L 19.2383 11.1328 C 17.4316 11.1328 16.0645 12.5 16.0645 14.3066 C 16.0645 16.1133 17.4316 17.4316 19.2383 17.4316 Z"/>
  </g>
  <g id="Thin-L" transform="matrix(1 0 0 1 779.713 1556)">
   <path d="M 18.0176 -82.959 L 135.4 -82.959 C 136.523 -82.959 137.354 -83.7402 137.354 -84.9121 C 137.354 -86.0352 136.523 -86.8164 135.4 -86.8164 L 18.0176 -86.8164 C 16.8457 -86.8164 16.0645 -86.0352 16.0645 -84.9121 C 16.0645 -83.7402 16.8457 -82.959 18.0176 -82.959 Z M 18.0176 -49.8535 L 135.4 -49.8535 C 136.523 -49.8535 137.354 -50.6348 137.354 -51.7578 C 137.354 -52.9297 136.523 -53.7109 135.4 -53.7109 L 18.0176 -53.7109 C 16.8457 -53.7109 16.0645 -52.9297 16.0645 -51.7578 C 16.0645 -50.6348 16.8457 -49.8535 18.0176 -49.8535 Z M 18.0176 -16.6992 L 135.4 -16.6992 C 136.523 -16.6992 137.354 -17.5293 137.354 -18.6523 C 137.354 -19.7754 136.523 -20.6055 135.4 -20.6055 L 18.0176 -20.6055 C 16.8457 -20.6055 16.0645 -19.7754 16.0645 -18.6523 C 16.0645 -17.5293 16.8457 -16.6992 18.0176 -16.6992 Z M 18.0176 16.4062 L 135.4 16.4062 C 136.523 16.4062 137.354 15.625 137.354 14.4531 C 137.354 13.3301 136.523 12.5488 135.4 12.5488 L 18.0176 12.5488 C 16.8457 12.5488 16.0645 13.3301 16.0645 14.4531 C 16.0645 15.625 16.8457 16.4062 18.0176 16.4062 Z"/>
  </g>
  <g id="Ultralight-L" transform="matrix(1 0 0 1 483.637 1556)">
   <path d="M 17.3828 -83.5938 L 134.766 -83.5938 C 135.596 -83.5938 136.084 -84.082 136.084 -84.8633 C 136.084 -85.6934 135.596 -86.1816 134.766 -86.1816 L 17.3828 -86.1816 C 16.5527 -86.1816 16.0645 -85.6934 16.0645 -84.8633 C 16.0645 -84.082 16.5527 -83.5938 17.3828 -83.5938 Z M 17.3828 -50.4395 L 134.766 -50.4395 C 135.596 -50.4395 136.084 -50.9277 136.084 -51.7578 C 136.084 -52.5391 135.596 -53.0273 134.766 -53.0273 L 17.3828 -53.0273 C 16.5527 -53.0273 16.0645 -52.5391 16.0645 -51.7578 C 16.0645 -50.9277 16.5527 -50.4395 17.3828 -50.4395 Z M 17.3828 -17.2852 L 134.766 -17.2852 C 135.596 -17.2852 136.084 -17.7734 136.084 -18.6035 C 136.084 -19.3848 135.596 -19.9219 134.766 -19.9219 L 17.3828 -19.9219 C 16.5527 -19.9219 16.0645 -19.3848 16.0645 -18.6035 C 16.0645 -17.7734 16.5527 -17.2852 17.3828 -17.2852 Z M 17.3828 15.8691 L 134.766 15.8691 C 135.596 15.8691 136.084 15.332 136.084 14.5508 C 136.084 13.7695 135.596 13.2324 134.766 13.2324 L 17.3828 13.2324 C 16.5527 13.2324 16.0645 13.7695 16.0645 14.5508 C 16.0645 15.332 16.5527 15.8691 17.3828 15.8691 Z"/>
  </g>
  <g id="Black-M" transform="matrix(1 0 0 1 2864.7 1126)">
   <path d="M 20.3125 -67.1387 L 117.09 -67.1387 C 121.484 -67.1387 124.951 -71.0449 124.951 -75.293 C 124.951 -79.7852 121.533 -83.4961 117.09 -83.4961 L 20.3125 -83.4961 C 15.918 -83.4961 12.4512 -79.6387 12.4512 -75.293 C 12.4512 -71.1426 15.9668 -67.1387 20.3125 -67.1387 Z M 20.3125 -41.5039 L 117.09 -41.5039 C 121.484 -41.5039 124.951 -45.4102 124.951 -49.707 C 124.951 -54.1504 121.533 -57.9102 117.09 -57.9102 L 20.3125 -57.9102 C 15.918 -57.9102 12.4512 -54.0527 12.4512 -49.707 C 12.4512 -45.5566 15.9668 -41.5039 20.3125 -41.5039 Z M 20.3125 -15.8203 L 117.09 -15.8203 C 121.484 -15.8203 124.951 -19.7266 124.951 -24.0234 C 124.951 -28.4668 121.533 -32.2266 117.09 -32.2266 L 20.3125 -32.2266 C 15.918 -32.2266 12.4512 -28.3691 12.4512 -24.0234 C 12.4512 -19.873 15.9668 -15.8203 20.3125 -15.8203 Z M 20.3125 9.81445 L 117.09 9.81445 C 121.484 9.81445 124.951 5.9082 124.951 1.61133 C 124.951 -2.88086 121.533 -6.5918 117.09 -6.5918 L 20.3125 -6.5918 C 15.918 -6.5918 12.4512 -2.73438 12.4512 1.61133 C 12.4512 5.76172 15.9668 9.81445 20.3125 9.81445 Z"/>
  </g>
  <g id="Heavy-M" transform="matrix(1 0 0 1 2569.65 1126)">
   <path d="M 19.3359 -67.8223 L 114.697 -67.8223 C 118.555 -67.8223 121.631 -71.1914 121.631 -74.9512 C 121.631 -78.8574 118.604 -82.0801 114.697 -82.0801 L 19.3359 -82.0801 C 15.4785 -82.0801 12.4512 -78.7598 12.4512 -74.9512 C 12.4512 -71.2891 15.5273 -67.8223 19.3359 -67.8223 Z M 19.3359 -42.1875 L 114.697 -42.1875 C 118.555 -42.1875 121.631 -45.5566 121.631 -49.3164 C 121.631 -53.2227 118.604 -56.4453 114.697 -56.4453 L 19.3359 -56.4453 C 15.4785 -56.4453 12.4512 -53.125 12.4512 -49.3164 C 12.4512 -45.6543 15.5273 -42.1875 19.3359 -42.1875 Z M 19.3359 -16.5527 L 114.697 -16.5527 C 118.555 -16.5527 121.631 -19.9219 121.631 -23.6816 C 121.631 -27.5879 118.604 -30.8105 114.697 -30.8105 L 19.3359 -30.8105 C 15.4785 -30.8105 12.4512 -27.4902 12.4512 -23.6816 C 12.4512 -20.0195 15.5273 -16.5527 19.3359 -16.5527 Z M 19.3359 9.08203 L 114.697 9.08203 C 118.555 9.08203 121.631 5.66406 121.631 1.9043 C 121.631 -1.95312 118.604 -5.22461 114.697 -5.22461 L 19.3359 -5.22461 C 15.4785 -5.22461 12.4512 -1.85547 12.4512 1.9043 C 12.4512 5.56641 15.5273 9.08203 19.3359 9.08203 Z"/>
  </g>
  <g id="Bold-M" transform="matrix(1 0 0 1 2274.82 1126)">
   <path d="M 18.2129 -68.6035 L 112.061 -68.6035 C 115.332 -68.6035 117.871 -71.3867 117.871 -74.5605 C 117.871 -77.7832 115.332 -80.4688 112.061 -80.4688 L 18.2129 -80.4688 C 14.9902 -80.4688 12.4512 -77.7344 12.4512 -74.5605 C 12.4512 -71.4355 15.0391 -68.6035 18.2129 -68.6035 Z M 18.2129 -43.0176 L 112.061 -43.0176 C 115.332 -43.0176 117.871 -45.752 117.871 -48.9258 C 117.871 -52.1973 115.332 -54.8828 112.061 -54.8828 L 18.2129 -54.8828 C 14.9902 -54.8828 12.4512 -52.1484 12.4512 -48.9258 C 12.4512 -45.8496 15.0391 -43.0176 18.2129 -43.0176 Z M 18.2129 -17.3828 L 112.061 -17.3828 C 115.332 -17.3828 117.871 -20.1172 117.871 -23.291 C 117.871 -26.5625 115.332 -29.248 112.061 -29.248 L 18.2129 -29.248 C 14.9902 -29.248 12.4512 -26.5137 12.4512 -23.291 C 12.4512 -20.2148 15.0391 -17.3828 18.2129 -17.3828 Z M 18.2129 8.25195 L 112.061 8.25195 C 115.332 8.25195 117.871 5.46875 117.871 2.29492 C 117.871 -0.976562 115.332 -3.66211 112.061 -3.66211 L 18.2129 -3.66211 C 14.9902 -3.66211 12.4512 -0.927734 12.4512 2.29492 C 12.4512 5.41992 15.0391 8.25195 18.2129 8.25195 Z"/>
  </g>
  <g id="Semibold-M" transform="matrix(1 0 0 1 1979.38 1126)">
   <path d="M 17.4805 -69.1406 L 110.254 -69.1406 C 113.086 -69.1406 115.332 -71.4844 115.332 -74.2676 C 115.332 -77.0996 113.086 -79.3945 110.254 -79.3945 L 17.4805 -79.3945 C 14.6484 -79.3945 12.4512 -77.0508 12.4512 -74.2676 C 12.4512 -71.5332 14.6973 -69.1406 17.4805 -69.1406 Z M 17.4805 -43.5547 L 110.254 -43.5547 C 113.086 -43.5547 115.332 -45.8984 115.332 -48.6816 C 115.332 -51.5137 113.086 -53.7598 110.254 -53.7598 L 17.4805 -53.7598 C 14.6484 -53.7598 12.4512 -51.4648 12.4512 -48.6816 C 12.4512 -45.9473 14.6973 -43.5547 17.4805 -43.5547 Z M 17.4805 -17.9199 L 110.254 -17.9199 C 113.086 -17.9199 115.332 -20.2637 115.332 -23.0469 C 115.332 -25.8789 113.086 -28.1738 110.254 -28.1738 L 17.4805 -28.1738 C 14.6484 -28.1738 12.4512 -25.8301 12.4512 -23.0469 C 12.4512 -20.3125 14.6973 -17.9199 17.4805 -17.9199 Z M 17.4805 7.66602 L 110.254 7.66602 C 113.086 7.66602 115.332 5.32227 115.332 2.53906 C 115.332 -0.292969 113.086 -2.58789 110.254 -2.58789 L 17.4805 -2.58789 C 14.6484 -2.58789 12.4512 -0.244141 12.4512 2.53906 C 12.4512 5.27344 14.6973 7.66602 17.4805 7.66602 Z"/>
  </g>
  <g id="Medium-M" transform="matrix(1 0 0 1 1683.64 1126)">
   <path d="M 16.8945 -69.5312 L 108.887 -69.5312 C 111.377 -69.5312 113.379 -71.582 113.379 -74.0234 C 113.379 -76.5625 111.377 -78.5156 108.887 -78.5156 L 16.8945 -78.5156 C 14.4043 -78.5156 12.4512 -76.5137 12.4512 -74.0234 C 12.4512 -71.582 14.4043 -69.5312 16.8945 -69.5312 Z M 16.8945 -43.9453 L 108.887 -43.9453 C 111.377 -43.9453 113.379 -45.9961 113.379 -48.4375 C 113.379 -50.9766 111.377 -52.9297 108.887 -52.9297 L 16.8945 -52.9297 C 14.4043 -52.9297 12.4512 -50.9277 12.4512 -48.4375 C 12.4512 -45.9961 14.4043 -43.9453 16.8945 -43.9453 Z M 16.8945 -18.3594 L 108.887 -18.3594 C 111.377 -18.3594 113.379 -20.4102 113.379 -22.8516 C 113.379 -25.3418 111.377 -27.3438 108.887 -27.3438 L 16.8945 -27.3438 C 14.4043 -27.3438 12.4512 -25.3418 12.4512 -22.8516 C 12.4512 -20.4102 14.4043 -18.3594 16.8945 -18.3594 Z M 16.8945 7.22656 L 108.887 7.22656 C 111.377 7.22656 113.379 5.17578 113.379 2.73438 C 113.379 0.244141 111.377 -1.75781 108.887 -1.75781 L 16.8945 -1.75781 C 14.4043 -1.75781 12.4512 0.244141 12.4512 2.73438 C 12.4512 5.17578 14.4043 7.22656 16.8945 7.22656 Z"/>
  </g>
  <g id="Regular-M" transform="matrix(1 0 0 1 1388.2 1126)">
   <path d="M 16.1133 -70.0684 L 107.08 -70.0684 C 109.131 -70.0684 110.84 -71.6797 110.84 -73.7793 C 110.84 -75.8301 109.131 -77.4414 107.08 -77.4414 L 16.1133 -77.4414 C 14.0625 -77.4414 12.4512 -75.8301 12.4512 -73.7793 C 12.4512 -71.6797 14.0625 -70.0684 16.1133 -70.0684 Z M 16.1133 -44.4824 L 107.08 -44.4824 C 109.131 -44.4824 110.84 -46.0938 110.84 -48.1934 C 110.84 -50.2441 109.131 -51.8555 107.08 -51.8555 L 16.1133 -51.8555 C 14.0625 -51.8555 12.4512 -50.2441 12.4512 -48.1934 C 12.4512 -46.0938 14.0625 -44.4824 16.1133 -44.4824 Z M 16.1133 -18.8965 L 107.08 -18.8965 C 109.131 -18.8965 110.84 -20.5566 110.84 -22.6074 C 110.84 -24.6582 109.131 -26.2695 107.08 -26.2695 L 16.1133 -26.2695 C 14.0625 -26.2695 12.4512 -24.6582 12.4512 -22.6074 C 12.4512 -20.5566 14.0625 -18.8965 16.1133 -18.8965 Z M 16.1133 6.64062 L 107.08 6.64062 C 109.131 6.64062 110.84 5.0293 110.84 2.97852 C 110.84 0.927734 109.131 -0.732422 107.08 -0.732422 L 16.1133 -0.732422 C 14.0625 -0.732422 12.4512 0.927734 12.4512 2.97852 C 12.4512 5.0293 14.0625 6.64062 16.1133 6.64062 Z"/>
  </g>
  <g id="Light-M" transform="matrix(1 0 0 1 1092.32 1126)">
   <path d="M 15.332 -70.8984 L 106.25 -70.8984 C 107.91 -70.8984 109.18 -72.1191 109.18 -73.7305 C 109.18 -75.3418 107.91 -76.6113 106.25 -76.6113 L 15.332 -76.6113 C 13.6719 -76.6113 12.4512 -75.3418 12.4512 -73.7305 C 12.4512 -72.1191 13.6719 -70.8984 15.332 -70.8984 Z M 15.332 -45.2637 L 106.25 -45.2637 C 107.91 -45.2637 109.18 -46.5332 109.18 -48.1445 C 109.18 -49.7559 107.91 -50.9766 106.25 -50.9766 L 15.332 -50.9766 C 13.6719 -50.9766 12.4512 -49.7559 12.4512 -48.1445 C 12.4512 -46.5332 13.6719 -45.2637 15.332 -45.2637 Z M 15.332 -19.6777 L 106.25 -19.6777 C 107.91 -19.6777 109.18 -20.8984 109.18 -22.5098 C 109.18 -24.1211 107.91 -25.3906 106.25 -25.3906 L 15.332 -25.3906 C 13.6719 -25.3906 12.4512 -24.1211 12.4512 -22.5098 C 12.4512 -20.8984 13.6719 -19.6777 15.332 -19.6777 Z M 15.332 5.95703 L 106.25 5.95703 C 107.91 5.95703 109.18 4.6875 109.18 3.07617 C 109.18 1.46484 107.91 0.244141 106.25 0.244141 L 15.332 0.244141 C 13.6719 0.244141 12.4512 1.46484 12.4512 3.07617 C 12.4512 4.6875 13.6719 5.95703 15.332 5.95703 Z"/>
  </g>
  <g id="Thin-M" transform="matrix(1 0 0 1 796.705 1126)">
   <path d="M 14.209 -71.9727 L 105.176 -71.9727 C 106.201 -71.9727 106.982 -72.7051 106.982 -73.7305 C 106.982 -74.7559 106.201 -75.4883 105.176 -75.4883 L 14.209 -75.4883 C 13.1836 -75.4883 12.4512 -74.7559 12.4512 -73.7305 C 12.4512 -72.7051 13.1836 -71.9727 14.209 -71.9727 Z M 14.209 -46.2891 L 105.176 -46.2891 C 106.201 -46.2891 106.982 -47.0215 106.982 -48.0469 C 106.982 -49.0723 106.201 -49.8535 105.176 -49.8535 L 14.209 -49.8535 C 13.1836 -49.8535 12.4512 -49.0723 12.4512 -48.0469 C 12.4512 -47.0215 13.1836 -46.2891 14.209 -46.2891 Z M 14.209 -20.6543 L 105.176 -20.6543 C 106.201 -20.6543 106.982 -21.3867 106.982 -22.4121 C 106.982 -23.4375 106.201 -24.1699 105.176 -24.1699 L 14.209 -24.1699 C 13.1836 -24.1699 12.4512 -23.4375 12.4512 -22.4121 C 12.4512 -21.3867 13.1836 -20.6543 14.209 -20.6543 Z M 14.209 5.0293 L 105.176 5.0293 C 106.201 5.0293 106.982 4.24805 106.982 3.22266 C 106.982 2.19727 106.201 1.46484 105.176 1.46484 L 14.209 1.46484 C 13.1836 1.46484 12.4512 2.19727 12.4512 3.22266 C 12.4512 4.24805 13.1836 5.0293 14.209 5.0293 Z"/>
  </g>
  <g id="Ultralight-M" transform="matrix(1 0 0 1 500.556 1126)">
   <path d="M 13.6719 -72.5098 L 104.639 -72.5098 C 105.371 -72.5098 105.859 -72.998 105.859 -73.7305 C 105.859 -74.4141 105.371 -74.9023 104.639 -74.9023 L 13.6719 -74.9023 C 12.9395 -74.9023 12.4512 -74.4141 12.4512 -73.7305 C 12.4512 -72.998 12.9395 -72.5098 13.6719 -72.5098 Z M 13.6719 -46.8262 L 104.639 -46.8262 C 105.371 -46.8262 105.859 -47.3145 105.859 -48.0469 C 105.859 -48.7793 105.371 -49.2188 104.639 -49.2188 L 13.6719 -49.2188 C 12.9395 -49.2188 12.4512 -48.7793 12.4512 -48.0469 C 12.4512 -47.3145 12.9395 -46.8262 13.6719 -46.8262 Z M 13.6719 -21.1426 L 104.639 -21.1426 C 105.371 -21.1426 105.859 -21.6309 105.859 -22.3633 C 105.859 -23.0957 105.371 -23.5352 104.639 -23.5352 L 13.6719 -23.5352 C 12.9395 -23.5352 12.4512 -23.0957 12.4512 -22.3633 C 12.4512 -21.6309 12.9395 -21.1426 13.6719 -21.1426 Z M 13.6719 4.54102 L 104.639 4.54102 C 105.371 4.54102 105.859 4.05273 105.859 3.32031 C 105.859 2.58789 105.371 2.09961 104.639 2.09961 L 13.6719 2.09961 C 12.9395 2.09961 12.4512 2.58789 12.4512 3.32031 C 12.4512 4.05273 12.9395 4.54102 13.6719 4.54102 Z"/>
  </g>
  <g id="Black-S" transform="matrix(1 0 0 1 2879.69 696)">
   <path d="M 15.8691 -60.2539 L 91.5527 -60.2539 C 94.9707 -60.2539 97.6562 -63.2812 97.6562 -66.6016 C 97.6562 -70.0684 95.0195 -72.9492 91.5527 -72.9492 L 15.8691 -72.9492 C 12.4512 -72.9492 9.76562 -69.9707 9.76562 -66.6016 C 9.76562 -63.3789 12.5 -60.2539 15.8691 -60.2539 Z M 15.8691 -40.1855 L 91.5527 -40.1855 C 94.9707 -40.1855 97.6562 -43.2129 97.6562 -46.5332 C 97.6562 -50 95.0195 -52.8809 91.5527 -52.8809 L 15.8691 -52.8809 C 12.4512 -52.8809 9.76562 -49.9023 9.76562 -46.5332 C 9.76562 -43.3105 12.5 -40.1855 15.8691 -40.1855 Z M 15.8691 -20.0684 L 91.5527 -20.0684 C 94.9707 -20.0684 97.6562 -23.0957 97.6562 -26.416 C 97.6562 -29.8828 95.0195 -32.7637 91.5527 -32.7637 L 15.8691 -32.7637 C 12.4512 -32.7637 9.76562 -29.7852 9.76562 -26.416 C 9.76562 -23.1934 12.5 -20.0684 15.8691 -20.0684 Z M 15.8691 0 L 91.5527 0 C 94.9707 0 97.6562 -3.02734 97.6562 -6.34766 C 97.6562 -9.81445 95.0195 -12.6953 91.5527 -12.6953 L 15.8691 -12.6953 C 12.4512 -12.6953 9.76562 -9.7168 9.76562 -6.34766 C 9.76562 -3.125 12.5 0 15.8691 0 Z"/>
  </g>
  <g id="Heavy-S" transform="matrix(1 0 0 1 2584.15 696)">
   <path d="M 15.1855 -60.6934 L 89.8438 -60.6934 C 92.8711 -60.6934 95.3125 -63.3789 95.3125 -66.3086 C 95.3125 -69.3848 92.9199 -71.9727 89.8438 -71.9727 L 15.1855 -71.9727 C 12.1582 -71.9727 9.76562 -69.3359 9.76562 -66.3086 C 9.76562 -63.4277 12.207 -60.6934 15.1855 -60.6934 Z M 15.1855 -40.625 L 89.8438 -40.625 C 92.8711 -40.625 95.3125 -43.3105 95.3125 -46.2891 C 95.3125 -49.3652 92.9199 -51.9043 89.8438 -51.9043 L 15.1855 -51.9043 C 12.1582 -51.9043 9.76562 -49.2676 9.76562 -46.2891 C 9.76562 -43.3594 12.207 -40.625 15.1855 -40.625 Z M 15.1855 -20.5566 L 89.8438 -20.5566 C 92.8711 -20.5566 95.3125 -23.1934 95.3125 -26.1719 C 95.3125 -29.248 92.9199 -31.7871 89.8438 -31.7871 L 15.1855 -31.7871 C 12.1582 -31.7871 9.76562 -29.1992 9.76562 -26.1719 C 9.76562 -23.291 12.207 -20.5566 15.1855 -20.5566 Z M 15.1855 -0.488281 L 89.8438 -0.488281 C 92.8711 -0.488281 95.3125 -3.125 95.3125 -6.10352 C 95.3125 -9.17969 92.9199 -11.7188 89.8438 -11.7188 L 15.1855 -11.7188 C 12.1582 -11.7188 9.76562 -9.13086 9.76562 -6.10352 C 9.76562 -3.22266 12.207 -0.488281 15.1855 -0.488281 Z"/>
  </g>
  <g id="Bold-S" transform="matrix(1 0 0 1 2288.78 696)">
   <path d="M 14.4531 -61.1816 L 87.9395 -61.1816 C 90.5762 -61.1816 92.627 -63.4277 92.627 -66.0156 C 92.627 -68.6523 90.5762 -70.8496 87.9395 -70.8496 L 14.4531 -70.8496 C 11.8164 -70.8496 9.76562 -68.6035 9.76562 -66.0156 C 9.76562 -63.4766 11.8652 -61.1816 14.4531 -61.1816 Z M 14.4531 -41.1621 L 87.9395 -41.1621 C 90.5762 -41.1621 92.627 -43.4082 92.627 -45.9473 C 92.627 -48.6328 90.5762 -50.7812 87.9395 -50.7812 L 14.4531 -50.7812 C 11.8164 -50.7812 9.76562 -48.584 9.76562 -45.9473 C 9.76562 -43.457 11.8652 -41.1621 14.4531 -41.1621 Z M 14.4531 -21.0938 L 87.9395 -21.0938 C 90.5762 -21.0938 92.627 -23.3398 92.627 -25.8789 C 92.627 -28.5645 90.5762 -30.7129 87.9395 -30.7129 L 14.4531 -30.7129 C 11.8164 -30.7129 9.76562 -28.5156 9.76562 -25.8789 C 9.76562 -23.3887 11.8652 -21.0938 14.4531 -21.0938 Z M 14.4531 -1.02539 L 87.9395 -1.02539 C 90.5762 -1.02539 92.627 -3.27148 92.627 -5.85938 C 92.627 -8.49609 90.5762 -10.6934 87.9395 -10.6934 L 14.4531 -10.6934 C 11.8164 -10.6934 9.76562 -8.44727 9.76562 -5.85938 C 9.76562 -3.32031 11.8652 -1.02539 14.4531 -1.02539 Z"/>
  </g>
  <g id="Semibold-S" transform="matrix(1 0 0 1 1992.97 696)">
   <path d="M 13.9648 -61.5234 L 86.6211 -61.5234 C 88.9648 -61.5234 90.8203 -63.4766 90.8203 -65.8203 C 90.8203 -68.1641 88.9648 -70.0684 86.6211 -70.0684 L 13.9648 -70.0684 C 11.6211 -70.0684 9.76562 -68.1152 9.76562 -65.8203 C 9.76562 -63.5254 11.6211 -61.5234 13.9648 -61.5234 Z M 13.9648 -41.5039 L 86.6211 -41.5039 C 88.9648 -41.5039 90.8203 -43.457 90.8203 -45.752 C 90.8203 -48.0957 88.9648 -50 86.6211 -50 L 13.9648 -50 C 11.6211 -50 9.76562 -48.0957 9.76562 -45.752 C 9.76562 -43.5059 11.6211 -41.5039 13.9648 -41.5039 Z M 13.9648 -21.4355 L 86.6211 -21.4355 C 88.9648 -21.4355 90.8203 -23.3887 90.8203 -25.6836 C 90.8203 -28.0762 88.9648 -29.9805 86.6211 -29.9805 L 13.9648 -29.9805 C 11.6211 -29.9805 9.76562 -28.0273 9.76562 -25.6836 C 9.76562 -23.4375 11.6211 -21.4355 13.9648 -21.4355 Z M 13.9648 -1.41602 L 86.6211 -1.41602 C 88.9648 -1.41602 90.8203 -3.36914 90.8203 -5.66406 C 90.8203 -8.00781 88.9648 -9.91211 86.6211 -9.91211 L 13.9648 -9.91211 C 11.6211 -9.91211 9.76562 -8.00781 9.76562 -5.66406 C 9.76562 -3.36914 11.6211 -1.41602 13.9648 -1.41602 Z"/>
  </g>
  <g id="Medium-S" transform="matrix(1 0 0 1 1696.95 696)">
   <path d="M 13.5742 -61.8164 L 85.5957 -61.8164 C 87.7441 -61.8164 89.4531 -63.5254 89.4531 -65.625 C 89.4531 -67.7734 87.7441 -69.4824 85.5957 -69.4824 L 13.5742 -69.4824 C 11.4258 -69.4824 9.76562 -67.7734 9.76562 -65.625 C 9.76562 -63.5742 11.4746 -61.8164 13.5742 -61.8164 Z M 13.5742 -41.748 L 85.5957 -41.748 C 87.7441 -41.748 89.4531 -43.5059 89.4531 -45.6055 C 89.4531 -47.7539 87.7441 -49.4629 85.5957 -49.4629 L 13.5742 -49.4629 C 11.4258 -49.4629 9.76562 -47.7051 9.76562 -45.6055 C 9.76562 -43.5059 11.4746 -41.748 13.5742 -41.748 Z M 13.5742 -21.7285 L 85.5957 -21.7285 C 87.7441 -21.7285 89.4531 -23.4863 89.4531 -25.5859 C 89.4531 -27.6855 87.7441 -29.3945 85.5957 -29.3945 L 13.5742 -29.3945 C 11.4258 -29.3945 9.76562 -27.6855 9.76562 -25.5859 C 9.76562 -23.4863 11.4746 -21.7285 13.5742 -21.7285 Z M 13.5742 -1.70898 L 85.5957 -1.70898 C 87.7441 -1.70898 89.4531 -3.41797 89.4531 -5.51758 C 89.4531 -7.66602 87.7441 -9.375 85.5957 -9.375 L 13.5742 -9.375 C 11.4258 -9.375 9.76562 -7.66602 9.76562 -5.51758 C 9.76562 -3.4668 11.4746 -1.70898 13.5742 -1.70898 Z"/>
  </g>
  <g id="Regular-S" transform="matrix(1 0 0 1 1401.14 696)">
   <path d="M 13.0371 -62.1582 L 84.2773 -62.1582 C 86.1328 -62.1582 87.6465 -63.5742 87.6465 -65.4297 C 87.6465 -67.2852 86.1328 -68.7012 84.2773 -68.7012 L 13.0371 -68.7012 C 11.2305 -68.7012 9.76562 -67.2852 9.76562 -65.4297 C 9.76562 -63.5742 11.2305 -62.1582 13.0371 -62.1582 Z M 13.0371 -42.0898 L 84.2773 -42.0898 C 86.1328 -42.0898 87.6465 -43.5547 87.6465 -45.4102 C 87.6465 -47.2168 86.1328 -48.6816 84.2773 -48.6816 L 13.0371 -48.6816 C 11.2305 -48.6816 9.76562 -47.2168 9.76562 -45.4102 C 9.76562 -43.5547 11.2305 -42.0898 13.0371 -42.0898 Z M 13.0371 -22.0703 L 84.2773 -22.0703 C 86.1328 -22.0703 87.6465 -23.5352 87.6465 -25.3906 C 87.6465 -27.1973 86.1328 -28.6621 84.2773 -28.6621 L 13.0371 -28.6621 C 11.2305 -28.6621 9.76562 -27.1973 9.76562 -25.3906 C 9.76562 -23.5352 11.2305 -22.0703 13.0371 -22.0703 Z M 13.0371 -2.05078 L 84.2773 -2.05078 C 86.1328 -2.05078 87.6465 -3.51562 87.6465 -5.37109 C 87.6465 -7.17773 86.1328 -8.64258 84.2773 -8.64258 L 13.0371 -8.64258 C 11.2305 -8.64258 9.76562 -7.17773 9.76562 -5.37109 C 9.76562 -3.51562 11.2305 -2.05078 13.0371 -2.05078 Z"/>
  </g>
  <g id="Light-S" transform="matrix(1 0 0 1 1105.16 696)">
   <path d="M 12.3047 -62.8418 L 83.5938 -62.8418 C 85.0098 -62.8418 86.1816 -63.9648 86.1816 -65.4297 C 86.1816 -66.8457 85.0098 -67.9688 83.5938 -67.9688 L 12.3047 -67.9688 C 10.8887 -67.9688 9.76562 -66.8457 9.76562 -65.4297 C 9.76562 -63.9648 10.8887 -62.8418 12.3047 -62.8418 Z M 12.3047 -42.8223 L 83.5938 -42.8223 C 85.0098 -42.8223 86.1816 -43.8965 86.1816 -45.3613 C 86.1816 -46.7773 85.0098 -47.9004 83.5938 -47.9004 L 12.3047 -47.9004 C 10.8887 -47.9004 9.76562 -46.7773 9.76562 -45.3613 C 9.76562 -43.8965 10.8887 -42.8223 12.3047 -42.8223 Z M 12.3047 -22.7539 L 83.5938 -22.7539 C 85.0098 -22.7539 86.1816 -23.877 86.1816 -25.293 C 86.1816 -26.7578 85.0098 -27.8809 83.5938 -27.8809 L 12.3047 -27.8809 C 10.8887 -27.8809 9.76562 -26.7578 9.76562 -25.293 C 9.76562 -23.877 10.8887 -22.7539 12.3047 -22.7539 Z M 12.3047 -2.68555 L 83.5938 -2.68555 C 85.0098 -2.68555 86.1816 -3.80859 86.1816 -5.27344 C 86.1816 -6.68945 85.0098 -7.8125 83.5938 -7.8125 L 12.3047 -7.8125 C 10.8887 -7.8125 9.76562 -6.68945 9.76562 -5.27344 C 9.76562 -3.80859 10.8887 -2.68555 12.3047 -2.68555 Z"/>
  </g>
  <g id="Thin-S" transform="matrix(1 0 0 1 809.425 696)">
   <path d="M 11.377 -63.8184 L 82.6172 -63.8184 C 83.5449 -63.8184 84.2285 -64.4531 84.2285 -65.3809 C 84.2285 -66.3086 83.5449 -66.9922 82.6172 -66.9922 L 11.377 -66.9922 C 10.4492 -66.9922 9.76562 -66.3086 9.76562 -65.3809 C 9.76562 -64.4531 10.4492 -63.8184 11.377 -63.8184 Z M 11.377 -43.7012 L 82.6172 -43.7012 C 83.5449 -43.7012 84.2285 -44.3848 84.2285 -45.3125 C 84.2285 -46.2402 83.5449 -46.875 82.6172 -46.875 L 11.377 -46.875 C 10.4492 -46.875 9.76562 -46.2402 9.76562 -45.3125 C 9.76562 -44.3848 10.4492 -43.7012 11.377 -43.7012 Z M 11.377 -23.6328 L 82.6172 -23.6328 C 83.5449 -23.6328 84.2285 -24.2676 84.2285 -25.1953 C 84.2285 -26.123 83.5449 -26.8066 82.6172 -26.8066 L 11.377 -26.8066 C 10.4492 -26.8066 9.76562 -26.123 9.76562 -25.1953 C 9.76562 -24.2676 10.4492 -23.6328 11.377 -23.6328 Z M 11.377 -3.51562 L 82.6172 -3.51562 C 83.5449 -3.51562 84.2285 -4.19922 84.2285 -5.12695 C 84.2285 -6.05469 83.5449 -6.68945 82.6172 -6.68945 L 11.377 -6.68945 C 10.4492 -6.68945 9.76562 -6.05469 9.76562 -5.12695 C 9.76562 -4.19922 10.4492 -3.51562 11.377 -3.51562 Z"/>
  </g>
  <g id="Ultralight-S" transform="matrix(1 0 0 1 513.202 696)">
   <path d="M 10.8398 -64.3066 L 82.1289 -64.3066 C 82.8125 -64.3066 83.252 -64.7461 83.252 -65.3809 C 83.252 -66.0156 82.8125 -66.4551 82.1289 -66.4551 L 10.8398 -66.4551 C 10.2051 -66.4551 9.76562 -66.0156 9.76562 -65.3809 C 9.76562 -64.7461 10.2051 -64.3066 10.8398 -64.3066 Z M 10.8398 -44.1895 L 82.1289 -44.1895 C 82.8125 -44.1895 83.252 -44.6289 83.252 -45.2637 C 83.252 -45.8984 82.8125 -46.3379 82.1289 -46.3379 L 10.8398 -46.3379 C 10.2051 -46.3379 9.76562 -45.8984 9.76562 -45.2637 C 9.76562 -44.6289 10.2051 -44.1895 10.8398 -44.1895 Z M 10.8398 -24.0723 L 82.1289 -24.0723 C 82.8125 -24.0723 83.252 -24.5117 83.252 -25.1465 C 83.252 -25.7812 82.8125 -26.2695 82.1289 -26.2695 L 10.8398 -26.2695 C 10.2051 -26.2695 9.76562 -25.7812 9.76562 -25.1465 C 9.76562 -24.5117 10.2051 -24.0723 10.8398 -24.0723 Z M 10.8398 -3.95508 L 82.1289 -3.95508 C 82.8125 -3.95508 83.252 -4.39453 83.252 -5.0293 C 83.252 -5.71289 82.8125 -6.15234 82.1289 -6.15234 L 10.8398 -6.15234 C 10.2051 -6.15234 9.76562 -5.71289 9.76562 -5.0293 C 9.76562 -4.39453 10.2051 -3.95508 10.8398 -3.95508 Z"/>
  </g>
 </g>
</svg>
